<svg xmlns="http://www.w3.org/2000/svg" viewBox="0 0 1000 1000"><defs><style>.cls-1{fill:#fff;}</style></defs><title>icon</title><g><rect class="cls-1" width="1000" height="1000"/></g><g id="Object"><path d="M530.934,507.478c-9.1-9.479-15.418-21.07-20.056-33.076-1.273,15.314,8.06,32.612,19.392,42.9,5.933,5.385,14.709,10.348,22.1,7.709,4.531-1.618,7.039-5.989,7.17-11.119C552.3,523.8,539.036,515.919,530.934,507.478Z"/><path d="M561.212,225.817c-60.55-32.609-118.555-36.131-163.334-9.917-53.423,31.275-83.64,89.131-84.846,157.892a369.758,369.758,0,0,0,2.837,52.224,436.859,436.859,0,0,1-51.055,59.993A110.972,110.972,0,0,0,242.2,496.026c-2.279,1.335-4.585,2.822-7.242,4.669L108.331,579.852C48.87,614.662,31.116,695.291,68.756,759.587s116.637,88.281,175.825,53.622l13.017-6.961,121.858,127.8c11.128,13.454,32.256,16.671,48.278,7.292.14-.082.279-.168.412-.259l32.337-21.65a23.3,23.3,0,0,0,8.056-9.289A23.05,23.05,0,0,0,470.3,907.3c12.077-23.112,12.631-25.882,12.927-27.368a23.248,23.248,0,0,0-10.306-24.3L441.2,835.319a154.617,154.617,0,0,1-36.621-32.695l-42.5-52.256,12.252-6.553a106.476,106.476,0,0,0,9.948-5.084,108.526,108.526,0,0,0,19.787-14.9c29.167-7.421,58.982-10.4,85.866-11.063A337.468,337.468,0,0,0,521.5,732.011c65.468,35.038,120.264,38.647,180.5,3.385,44.779-26.215,70.1-78.52,71.309-147.28,1.159-65.968-20.189-139.853-60.109-208.043S619.3,257.1,561.212,225.817ZM439.147,587.06,505.4,538.215l-75.212,33.941,37.183-29.606L421,559.525c-.411-.676-.816-1.36-1.223-2.039l25.876-20.7-32.778,8.788q-.685-1.226-1.362-2.452L432.153,526.3l-26.8,5.25q-.705-1.372-1.4-2.744l18.594-14.917-24.03,3.764c-.466-.994-.919-1.988-1.376-2.982l17.6-14.119-22.316,3.5c-.41-.959-.822-1.918-1.223-2.877L488.3,463.32c-3.1,14.857.5,33.884,11.095,51.984a89.7,89.7,0,0,0,20.049,23.941L440.407,588.8C439.988,588.219,439.564,587.645,439.147,587.06Zm119.162-52.634c-10.23,5.989-31.227-3.736-45-27.268s-11.978-46.6-1.748-52.59,31.227,3.736,45,27.268S568.539,528.437,558.309,534.426ZM385.2,384.409c-5.55,8.284-11.194,16.53-17.254,24.469,8.571-20.113,19.012-39.478,29.507-58.689,13.792-25.245,28.756-50.018,44.8-73.96,5.553-8.283,11.2-16.528,17.265-24.463-8.557,20.12-19.007,39.48-29.5,58.7C416.242,335.707,401.241,360.467,385.2,384.409Zm-18.059-22.567c3.98-16.649,10.793-32.8,17.95-48.3s15.109-31.148,25.259-44.913c-3.962,16.656-10.786,32.806-17.95,48.3S377.275,348.067,367.141,361.842ZM519.376,670.46l50.258,2.76-69.817-21.94,116.284-2-132.38-18.467,102.605-15.945-95.432-3.828,78.779-64.7a8.007,8.007,0,0,0,1.119-1.137c15.738-13.671,15.974-43.689-.316-71.516A94.279,94.279,0,0,0,557.923,456.8l83.347-70.948-102.762,56a48.889,48.889,0,0,0-12.172-4.4l100.6-90.12q-7.98-10.627-16.535-20.767l-97.493,93.305,84.949-107.506a370.549,370.549,0,0,0-52.81-47.382c-.336-.246-.68-.479-1.017-.722L454.675,369.3l79.492-111.7c-8.255-5.231-16.832-9.928-25.5-14.476,60.681,18.269,126.858,74.477,173.924,154.875,72.943,124.6,72.78,260.806-.363,303.625C637.924,727.553,576.856,713.361,519.376,670.46ZM391.77,923.639c-.138-.17-.283-.336-.435-.493L272.352,798.357,276,796.405l26.978,20.649L288,789.99l4.794-2.564,26.349,20.167L304.505,781.16l5.073-2.713,25.72,19.686-14.284-25.8,3.637-1.945,56.1,68.986A155.747,155.747,0,0,0,417.64,872.3l33.747,21.614a7.248,7.248,0,0,1,.127,12.123L419.4,927.54C411.27,932.171,398.308,931.726,391.77,923.639ZM356.394,759.046c13.008,14.165,25.327,28.99,37.626,43.769,8.42,10.119,16.937,19.842,26.987,28.4,9.552,8.136,20.092,14.8,30.508,21.746,9.748,6.5,22,12.529,23.376,25.51-4.026-10.646-13.686-14.976-22.866-20.51-10.666-6.431-21.453-12.864-31.166-20.693-19.615-15.808-34.473-37.12-49.357-57.219C366.37,773.12,361.283,766.151,356.394,759.046ZM151.5,662.655c-5.5-25.168-5.385-50.541,3.3-75.054a105.641,105.641,0,0,0-6.835,12.232c-10.592,22.686-13.153,46.7-10.486,71.372-5.5-25.168-5.386-50.541,3.3-75.055a105.6,105.6,0,0,0-6.836,12.233c-10.592,22.686-13.153,46.7-10.486,71.373-5.5-25.168-5.385-50.542,3.3-75.056a105.59,105.59,0,0,0-6.835,12.233c-10.592,22.686-13.153,46.7-10.487,71.373-5.5-25.169-5.385-50.542,3.3-75.056a105.527,105.527,0,0,0-6.836,12.234c-10.592,22.685-13.154,46.7-10.486,71.372-5.5-25.168-5.386-50.542,3.3-75.056a105.61,105.61,0,0,0-6.836,12.234c-10.592,22.687-13.152,46.7-10.486,71.372-5.5-25.178-5.387-50.563,3.311-75.086a117.879,117.879,0,0,1,7.307-16.346,100.539,100.539,0,0,1,24.658-20.329l99.84-62.411c-5.63,7.05-23.087,35.657-26.491,42.948-10.593,22.685-13.155,46.7-10.487,71.373-5.5-25.168-5.386-50.544,3.3-75.056a105.738,105.738,0,0,0-6.835,12.233c-10.592,22.686-13.154,46.705-10.487,71.373-5.5-25.167-5.385-50.543,3.3-75.055a105.808,105.808,0,0,0-6.835,12.232C151.393,613.968,148.831,637.987,151.5,662.655ZM423.45,674.536a153.017,153.017,0,0,0,16.63,10.314,147.548,147.548,0,0,1-32.02-11.786c-19.206-9.78-35.634-23.363-50.283-39.048,13.331,18.41,28.918,34.491,47.889,47.156a144.7,144.7,0,0,0,15.382,8.924,141.9,141.9,0,0,1-31.189-10.273c-19.3-8.986-35.813-22.107-50.47-37.4C352.851,660.518,368.7,676.2,388,688.042a142.948,142.948,0,0,0,14.211,7.634,131.955,131.955,0,0,1-27.876-7.845c-20.468-8.313-37.944-21.322-53.337-37,13.792,18.07,30.172,33.579,50.167,44.648,4.049,2.242,8.161,4.242,12.325,6.042a121.454,121.454,0,0,1-27.968-6.944c-20.3-7.737-37.607-20.1-52.911-35.336,14.062,17.986,30.9,33.34,51.461,43.623,3.452,1.727,6.936,3.277,10.449,4.682a115,115,0,0,1-27.146-5.847c-20.424-7.088-37.772-19.049-53.151-34.048,14.5,18.126,31.983,33.395,53.359,42.911q3.9,1.734,7.825,3.19a110.648,110.648,0,0,1-25.437-4.587c-20.847-6.356-38.512-18.16-54.135-33.105,14.389,17.608,31.616,32.2,52.718,41.166q3.923,1.667,7.884,3.034a103.275,103.275,0,0,1-24.927-3.872c-20.841-5.92-38.388-17.19-54.062-31.918,14.563,17.46,31.646,31.007,52.706,39.815,3.263,1.365,6.565,2.529,9.892,3.545-34.393-3.866-67.072-25.022-86.64-58.447-25.2-43.042-21.581-96.328,7.768-130.591,35.744-23.136,65.723-54.707,89.188-85.045a409.245,409.245,0,0,0,48.468,126.6,431.078,431.078,0,0,0,73.781,93.882,147.846,147.846,0,0,1-17.032-8.122c-18.851-10.541-34.956-24.573-49.42-40.5C389.363,644.372,404.714,661.147,423.45,674.536Zm12.513-46.85a432.487,432.487,0,0,1-67.035-108.6C348.688,472.169,336.878,419.8,340,368.55c2.894-47.6,20.049-97.22,60.881-125.159,3.11-2.129,6.418-3.948,9.672-5.849-16.727,11.692-30.587,25.906-40.53,43.862-11.636,21.015-17.791,44.8-20.2,68.582-5.055,49.857,5.153,100.481,22.838,147a435.423,435.423,0,0,0,59.774,107.568c30.213,39.931,68.008,75.888,112.63,99.228,41.3,21.6,89.949,32.54,134.565,14.506,3.31-1.338,6.492-2.985,9.707-4.536-18.72,10.976-38.5,17.318-60.312,18.139-24.455.921-48.636-4.384-71.325-13.27C510.2,700.025,468.741,666.327,435.963,627.686ZM759.419,525.409c3.226,18.913,5.282,38.087,4.706,57.3a243.354,243.354,0,0,1-6.6,48.826c6.107-31.165,6.191-62.076,1.386-93.469-5.259-34.361-15.9-68.062-29.762-99.9-28.43-65.3-71.316-125.813-126.389-171.263-27.271-22.507-57.695-39.52-91.554-49.7a242.37,242.37,0,0,1,83.274,40.061c28.561,21.025,53.19,46.1,75.3,73.755A453.249,453.249,0,0,1,726.805,424C741.707,456.327,753.422,490.255,759.419,525.409Z"/><path d="M603.522,217.841c5.823-6.738,11.193-13.877,16.423-21.08,14.131-19.46,26.664-39.94,39-60.564-8.52.375-17.036.746-25.546,1.245,11.159-20.918,21.827-42.333,30.138-64.546-7.375,8.9-14.2,18.27-20.808,27.751-11.619,16.676-22.31,33.915-33.009,51.183,8.312-.208,16.613-.435,24.914-.775-1.065,1.964-2.164,3.91-3.214,5.882C620.962,176.568,610.893,196.822,603.522,217.841Z"/><path d="M683.438,280.326c7.8-4.743,15.281-10.03,22.643-15.421,19.22-14.076,37.259-29.582,55.156-45.278-8.223-2.258-16.443-4.518-24.7-6.654,17.04-16.485,33.766-33.593,48.491-52.184-9.75,6.208-19.124,13.031-28.32,20.027-16.175,12.306-31.641,25.433-47.122,38.584,7.974,2.353,15.945,4.684,23.95,6.908-1.616,1.543-3.26,3.058-4.865,4.612C712.7,246.4,696.9,262.583,683.438,280.326Z"/><path d="M819.817,319.956c21.294-10.425,42.482-21.54,62.224-34.682-11.19,2.9-22.211,6.5-33.117,10.314-19.183,6.717-37.943,14.433-56.726,22.167,6.848,4.691,13.7,9.359,20.617,13.936q-13.743,6.624-27.2,13.812c-12.66,6.8-25.278,13.923-37.084,22.14,8.883-2.1,17.629-4.827,26.295-7.685,22.626-7.46,44.567-16.646,66.433-26.055C834.13,329.218,827.009,324.533,819.817,319.956Z"/><path d="M894.215,459.173c-5.783-6.268-11.56-12.535-17.433-18.715,23.182-4.969,46.427-10.635,68.76-18.617-11.559.108-23.123.936-34.628,2.006-20.237,1.882-40.306,4.836-60.4,7.8,5.512,6.207,11.033,12.393,16.639,18.5-9.958,2.071-19.876,4.322-29.734,6.829-13.929,3.542-27.894,7.4-41.336,12.522,9.129.1,18.273-.424,27.373-1.1C847.212,466.631,870.723,463.019,894.215,459.173Z"/><path d="M967,563.978c-11.224-2.764-22.632-4.831-34.043-6.649-20.071-3.2-40.246-5.315-60.449-7.428,3.8,7.38,7.613,14.743,11.527,22.055-10.159-.465-20.326-.744-30.5-.761-14.372-.026-28.858.249-43.15,1.875,8.817,2.365,17.806,4.123,26.79,5.723,23.455,4.178,47.127,6.513,70.839,8.615-4.047-7.507-8.09-15.012-12.245-22.455C919.461,565.89,943.386,566.169,967,563.978Z"/></g></svg>