<svg id="Capa_1" data-name="Capa 1" xmlns="http://www.w3.org/2000/svg" viewBox="0 0 61.64 83.58"><defs><style>.cls-1{fill:#f06b80;}.cls-2{fill:#d24462;}.cls-3{fill:#ffd1d9;}.cls-4{fill:#fdf3f7;}.cls-5{fill:#fdf2f7;}.cls-6{fill:#ff9ecc;}.cls-7{fill:#fd7ab9;}.cls-8{fill:#fd76b7;}.cls-9{fill:#ff77b8;}</style></defs><title>icon</title><g id="OMah7t"><path class="cls-1" d="M35.29,12.4l2-.54h0c.44.06.82-.28,1.27-.2.69-.07,1.39-.16,2.09-.21a60.91,60.91,0,0,1,10.8.46c3.43.36,6.83.95,10.27,1.24a5.91,5.91,0,0,1,4.86,3.26,26.42,26.42,0,0,1,3.13,9.49c.05.39.26.76.14,1.17-.34-.09-.46.18-.61.37a27.18,27.18,0,0,0-4.13,6.9c-.3.79-.69,1.54-1,2.32-.17.4-.42,1,.06,1.2s.67-.39.84-.73c.46-.92.9-1.86,1.28-2.81a14.12,14.12,0,0,1,2.88-4.46,4.57,4.57,0,0,0,.93-1.29,5.28,5.28,0,0,1,5-.66,6.55,6.55,0,0,1,4.18,5.17,16.42,16.42,0,0,1-1.53,10,44.49,44.49,0,0,1-3,5.86c-1.17,1.85-1.75,4-2.81,5.9S70,58.66,69,60.54c-.23.44-.5.86-.27,1.39-1.35,1-2.69,2-4.07,2.88a20,20,0,0,1-5.42,2.48c-1.79.53-3.6,1-5.45,1.38a50,50,0,0,1-5,.85c-1.3.14-2.62.19-3.93.23-2.44.07-4.64-.87-6.83-1.76a4.87,4.87,0,0,0-1.95-.67c-1.5-3.06-3.44-5.85-5.19-8.75-1.38-2.29-2.52-4.7-3.68-7.1.15-.12.31-.06.47,0a23.84,23.84,0,0,0,8.67.16c1.65-.21,3.28-.55,4.93-.78A12.22,12.22,0,0,0,43.91,50a26.44,26.44,0,0,0,5.63-2.55,20.92,20.92,0,0,0,5.05-4.75A57,57,0,0,0,60.2,35a48.6,48.6,0,0,0,3.4-8.48,4.37,4.37,0,0,0,.17-1.53c0-.33-.11-.64-.49-.67a.57.57,0,0,0-.6.58c-.19,2.24-1.18,4.24-2,6.3a29.85,29.85,0,0,1-4.91,8.25c-1,1.24-2,2.49-3,3.72a17.69,17.69,0,0,1-7.17,5.07,25.16,25.16,0,0,1-4.54,1.5,41.57,41.57,0,0,1-10.95,1.14,9.9,9.9,0,0,1-1.88-.26c-.76-.19-.87-.11-.94.64a.84.84,0,0,1-.08.27c-.46-1.33-1.66-1.81-2.73-2.51a13.1,13.1,0,0,1-5.13-6.57,3.48,3.48,0,0,0-.22-.43c-.32-1.23-.88-2.39-1.12-3.64a19.46,19.46,0,0,1,.06-5.6,12.76,12.76,0,0,1,1.47-4.23,52.84,52.84,0,0,1,7-9.78,24.36,24.36,0,0,1,6-5.06C33.43,13.18,34.37,12.82,35.29,12.4Z" transform="translate(-17.86 -11.36)"/><path class="cls-1" d="M70.54,67.15c1.58.74,2,2.18,2.24,3.73a27.43,27.43,0,0,1-2.91,15.56c-.51.93-1.54,1.19-2.32,1.77a7.92,7.92,0,0,1-2.24,1,25.8,25.8,0,0,1-4.23,1,35.4,35.4,0,0,1-6.67.08,25.87,25.87,0,0,1-3.91-.53,10.89,10.89,0,0,1-4.83-2.18,5.62,5.62,0,0,1-2.2-5.33,12.44,12.44,0,0,1,1.16-3.76,6.61,6.61,0,0,1,4.92-3.61c2.84-.62,5.75-.88,8.57-1.6A21.63,21.63,0,0,0,61.69,72a41.18,41.18,0,0,0,6.59-3.34,8.83,8.83,0,0,0,1.49-1.17C70,67.31,70.17,67,70.54,67.15Z" transform="translate(-17.86 -11.36)"/><path class="cls-2" d="M36.1,67.32a1.15,1.15,0,0,1,1.3.07,16.35,16.35,0,0,0,9.35,2.09,63.43,63.43,0,0,0,7.13-1c1.83-.4,3.65-.86,5.44-1.38a24.22,24.22,0,0,0,8.45-4.72c.29-.23.53-.55,1-.42A1,1,0,0,1,69.6,63c0,.76.09,1.52.14,2.28a1.48,1.48,0,0,1-.51,1.38A12.23,12.23,0,0,1,65.79,69c-1.5.72-3,1.46-4.55,2.07a35.6,35.6,0,0,1-7,1.91,50.45,50.45,0,0,0-5.34.91,8,8,0,0,0-5.82,5.32c-.22.67-.41,1.35-.61,2a7.26,7.26,0,0,0,3.49,8,16.32,16.32,0,0,0,5.84,2,37,37,0,0,0,7.8.32A23.8,23.8,0,0,0,67,89.78c.25-.1.56-.46.85,0a9.84,9.84,0,0,1-3.94,3.84l-1.23.34-.68.15c-1.39.19-2.79.33-4.18.57a26.36,26.36,0,0,1-7.63,0,15.19,15.19,0,0,1-6.75-2.42,5.62,5.62,0,0,1-2.16-3.11,105.38,105.38,0,0,1-3.51-12c-.64-3-1.39-6-1.76-9A1,1,0,0,1,36.1,67.32Z" transform="translate(-17.86 -11.36)"/><path class="cls-3" d="M67.86,89.76c-.38-.23-.61.15-.88.26A28.23,28.23,0,0,1,54.2,91.61a21.27,21.27,0,0,1-6.65-1.38,8.35,8.35,0,0,1-5.32-5.67,3.53,3.53,0,0,1-.12-1c.15-5.64,2.76-9.46,8.35-10.23a60,60,0,0,0,7-1.27A44.72,44.72,0,0,0,65,69.15a20.07,20.07,0,0,0,3.77-2.29,2.16,2.16,0,0,0,1-1.56c.27.62.53,1.24.8,1.85-.84.58-1.56,1.31-2.42,1.89a52.36,52.36,0,0,1-5.05,2.6,30.59,30.59,0,0,1-4.64,1.77,24.91,24.91,0,0,1-2.87.66c-2,.4-4,.56-5.94,1a6.37,6.37,0,0,0-4,2.27c-1.51,2.09-2.46,4.45-1.81,7.12A5.82,5.82,0,0,0,46.58,88a14.76,14.76,0,0,0,6.12,1.91,32.9,32.9,0,0,0,7,.22,17.32,17.32,0,0,0,8.9-2.84c.42-.29.82-.62,1.26-.88a4.64,4.64,0,0,1-1.15,2.32C68.44,89.1,68.14,89.43,67.86,89.76Z" transform="translate(-17.86 -11.36)"/><path class="cls-3" d="M70.13,28.57a1.12,1.12,0,0,1-.41,1,15.65,15.65,0,0,0-3.48,5.36,18.17,18.17,0,0,1-1.31,2.79c-.19.31-.42.55-.78.44s-.4-.5-.37-.82a7.41,7.41,0,0,1,.8-2.08,26.09,26.09,0,0,1,1.69-3.76A31.67,31.67,0,0,1,69,27.55c.17-.2.31-.41.48-.61s.37-.16.44.13A4.51,4.51,0,0,1,70.13,28.57Z" transform="translate(-17.86 -11.36)"/><path class="cls-3" d="M27.23,51.48c0-.35-.34-.69,0-1s.74-.1,1.11,0a19.2,19.2,0,0,0,4.54.24A32.28,32.28,0,0,0,38.18,50a32.82,32.82,0,0,0,4.53-1c3.5-1.14,6.85-2.59,9.35-5.42,1.69-1.92,3.33-3.91,4.83-6a29,29,0,0,0,2.24-3.48A45,45,0,0,0,62.34,26a5.69,5.69,0,0,0,.12-1.18c0-.53.35-.86.87-.81s.64.47.65.93A11.85,11.85,0,0,1,63,29a36.4,36.4,0,0,1-3.42,7.45A53.51,53.51,0,0,1,55.37,42,27.48,27.48,0,0,1,52,45.85a19.48,19.48,0,0,1-5.73,3.47c-1.33.5-2.64,1.08-4,1.45a55.14,55.14,0,0,1-5.58,1,32.62,32.62,0,0,1-7,.27,8.21,8.21,0,0,1-2.46-.54Z" transform="translate(-17.86 -11.36)"/><path class="cls-4" d="M65,84.4a36,36,0,0,0,.2-6c0-.14,0-.28,0-.42,0-.34.07-.62.46-.66s.48.25.54.53c.32,1.56.65,3.12,1.1,4.66a3.22,3.22,0,0,0,.55,1.18,14,14,0,0,0,.26-4,13.37,13.37,0,0,0-.6-4c-.11-.3-.28-.68.19-.82s.61.24.74.56a11.06,11.06,0,0,1,.56,3.17,20.49,20.49,0,0,1-.06,4.63,3.57,3.57,0,0,1-.11.55c-.16.49-.26,1.06-.92,1.1s-.84-.53-1.08-1-.22-1-.61-1.4c-.1.76-.19,1.5-.32,2.24a3.37,3.37,0,0,1-.25.8.78.78,0,0,1-.8.56c-.41,0-.6-.31-.72-.67a13,13,0,0,1-.54-3.32c-.15-2-.23-4-.32-6,0-.3,0-.68.38-.72s.44.3.47.63c.18,2.09.15,4.2.41,6.3a11,11,0,0,0,.26,1.8C64.75,84.29,64.6,84.57,65,84.4Z" transform="translate(-17.86 -11.36)"/><path class="cls-4" d="M51.13,80.92c.06,1.39.12,2.79.16,4.19,0,.54,0,1.08,0,1.62,0,.27-.1.54-.42.55s-.43-.27-.43-.53c.07-2.37-.32-4.72-.15-7.09a5.85,5.85,0,0,1,.63-2.5,1.4,1.4,0,0,1,1.57-.8,1.35,1.35,0,0,1,1,1.39,1.91,1.91,0,0,1-1.17,2c-.31.13-.33.28-.18.53a19,19,0,0,1,2,5.45c.09.33.27.74-.23.89s-.61-.29-.72-.65a20.73,20.73,0,0,0-1.49-4.53l-.35-.6Z" transform="translate(-17.86 -11.36)"/><path class="cls-4" d="M70.11,77.55c.07,1,.15,1.94.22,2.9s.15,1.68.2,2.52c0,.34.16.85-.4.88s-.52-.47-.55-.82c-.16-2-.29-4.1-.46-6.15-.05-.65-.17-1.3-.28-1.94a1.79,1.79,0,0,1,1.87-2.15,1.24,1.24,0,0,1,1.17,1.1,2.11,2.11,0,0,1-1,2.22c-.4.22-.35.37-.06.64.44.42.85.87,1.26,1.32.23.26.42.58.09.86s-.57,0-.78-.21l-1.11-1.24Z" transform="translate(-17.86 -11.36)"/><path class="cls-4" d="M46.78,84.12a3.05,3.05,0,0,0,.59,1.35c.36.43.59.4.79-.12a11.2,11.2,0,0,0,.44-2.76c0-.26-.08-.31-.31-.34a.44.44,0,0,1-.42-.54c.05-.31.27-.39.56-.42.87-.08,1.15.17,1.13,1.06a13,13,0,0,1-.34,2.85c-.17.69-.4,1.39-1.24,1.54a1.8,1.8,0,0,1-1.7-1.24,8.05,8.05,0,0,1,0-6.35,2.92,2.92,0,0,1,1.31-1.68,1.28,1.28,0,0,1,1.5.14.46.46,0,0,1,.18.67.39.39,0,0,1-.62.08c-.47-.38-.77-.12-1,.25a6.74,6.74,0,0,0-1,4.08A3.63,3.63,0,0,0,46.78,84.12Z" transform="translate(-17.86 -11.36)"/><path class="cls-4" d="M62.41,77.07A2.36,2.36,0,0,1,61,80.19c-.28.13-.3.3-.28.55.1,1.64.34,3.25.57,4.87.06.4.31,1-.3,1.12s-.46-.57-.53-.94a64.9,64.9,0,0,1-.87-8.36c-.05-1.18.34-1.75,1.17-1.84S62.17,76.13,62.41,77.07Z" transform="translate(-17.86 -11.36)"/><path class="cls-5" d="M55.15,85.8c0-.77-.1-2-.14-3.15-.06-1.77-.1-3.55-.16-5.32,0-.34,0-.66.41-.66s.44.35.46.65c.11,2.64.24,5.27.32,7.91,0,.63.18,1,.86.92.35,0,.79,0,.74.53s-.49.47-.83.41C56.19,87,55.36,87.2,55.15,85.8Z" transform="translate(-17.86 -11.36)"/><path class="cls-6" d="M65,84.4c0,.13,0,.27-.14.36a.55.55,0,0,1-.08-.6C64.78,84.26,64.82,84.37,65,84.4Z" transform="translate(-17.86 -11.36)"/><path class="cls-7" d="M52.5,77.73a1.19,1.19,0,0,1-.2.81c-.23.3-.56.67-.91.5s0-.54.1-.82a2.56,2.56,0,0,1,.27-.64c.09-.15.2-.33.44-.27S52.44,77.56,52.5,77.73Z" transform="translate(-17.86 -11.36)"/><path class="cls-8" d="M69.74,75c-.17-.73,0-1.14.61-1.3.32-.1.53,0,.61.32a1.24,1.24,0,0,1-.85,1.41C69.63,75.58,69.9,75.11,69.74,75Z" transform="translate(-17.86 -11.36)"/><path class="cls-9" d="M61.48,77.36a1.56,1.56,0,0,1-.4,1.73c-.23.18-.42.25-.43-.17s0-1-.08-1.47c0-.32-.09-.76.31-.82S61.37,77,61.48,77.36Z" transform="translate(-17.86 -11.36)"/></g></svg>