<svg id="Capa_1" data-name="Capa 1" xmlns="http://www.w3.org/2000/svg" viewBox="0 0 34.93 47.36"><defs><style>.cls-1{fill:#f06b80;}.cls-2{fill:#d24462;}.cls-3{fill:#ffd1d9;}.cls-4{fill:#fdf3f7;}.cls-5{fill:#fdf2f7;}.cls-6{fill:#ff9ecc;}.cls-7{fill:#fd7ab9;}.cls-8{fill:#fd76b7;}.cls-9{fill:#ff77b8;}</style></defs><title>icon</title><g id="OMah7t"><path class="cls-1" d="M16.49,2.5l1.15-.3h0c.25,0,.47-.16.72-.11.4,0,.79-.09,1.19-.12a34.8,34.8,0,0,1,6.12.26c1.94.21,3.87.54,5.81.7a3.35,3.35,0,0,1,2.76,1.85A14.9,14.9,0,0,1,36,10.15c0,.22.15.43.08.66-.19-.05-.26.1-.34.21a15.37,15.37,0,0,0-2.34,3.91c-.17.45-.39.88-.57,1.32-.1.22-.24.55,0,.68s.37-.23.47-.42c.26-.52.51-1.05.72-1.59a7.83,7.83,0,0,1,1.64-2.52,2.75,2.75,0,0,0,.52-.74A3,3,0,0,1,39,11.29a3.69,3.69,0,0,1,2.37,2.93,9.29,9.29,0,0,1-.87,5.65,26.15,26.15,0,0,1-1.71,3.33c-.67,1-1,2.26-1.6,3.34s-1.06,2.17-1.63,3.24a.86.86,0,0,0-.15.79c-.77.54-1.52,1.1-2.31,1.63a11.22,11.22,0,0,1-3.07,1.4c-1,.3-2,.58-3.09.79s-1.87.38-2.82.48c-.74.07-1.49.11-2.23.13a9.77,9.77,0,0,1-3.87-1A2.77,2.77,0,0,0,17,33.62c-.85-1.73-1.95-3.31-2.94-5-.78-1.3-1.43-2.66-2.09-4,.09-.07.18,0,.27,0a13.56,13.56,0,0,0,4.92.09c.93-.12,1.86-.32,2.79-.44a7.72,7.72,0,0,0,1.48-.47,15.27,15.27,0,0,0,3.19-1.45,11.8,11.8,0,0,0,2.86-2.69,31.85,31.85,0,0,0,3.18-4.39,27.73,27.73,0,0,0,1.92-4.81,2.53,2.53,0,0,0,.1-.87c0-.18-.06-.36-.28-.37s-.32.14-.33.33a14.16,14.16,0,0,1-1.11,3.56,16.93,16.93,0,0,1-2.79,4.68l-1.71,2.11a10,10,0,0,1-4.06,2.87,13.82,13.82,0,0,1-2.57.85,24.07,24.07,0,0,1-6.21.65,6.41,6.41,0,0,1-1.07-.15c-.43-.11-.49-.06-.53.36a.25.25,0,0,1-.05.15c-.26-.75-.94-1-1.54-1.42A7.45,7.45,0,0,1,7.47,19.5a1.19,1.19,0,0,0-.13-.25c-.17-.69-.49-1.35-.63-2.06a10.87,10.87,0,0,1,0-3.17,7.07,7.07,0,0,1,.83-2.4,30.13,30.13,0,0,1,3.95-5.54,14,14,0,0,1,3.41-2.87C15.44,2.94,16,2.74,16.49,2.5Z" transform="translate(-6.61 -1.91)"/><path class="cls-1" d="M36.47,33.52a2.42,2.42,0,0,1,1.27,2.12,15.63,15.63,0,0,1-1.65,8.81c-.29.53-.87.68-1.32,1A4.55,4.55,0,0,1,33.5,46a14.11,14.11,0,0,1-2.39.58,19.89,19.89,0,0,1-3.78,0,13.93,13.93,0,0,1-2.22-.3,6.11,6.11,0,0,1-2.73-1.23,3.18,3.18,0,0,1-1.25-3A7.12,7.12,0,0,1,21.78,40a3.78,3.78,0,0,1,2.79-2.05c1.61-.35,3.26-.5,4.86-.9a13.12,13.12,0,0,0,2-.72,23.84,23.84,0,0,0,3.74-1.89,5.37,5.37,0,0,0,.84-.67C36.14,33.61,36.26,33.46,36.47,33.52Z" transform="translate(-6.61 -1.91)"/><path class="cls-2" d="M17,33.62c.26-.18.48-.09.74,0A9.21,9.21,0,0,0,23,34.84a34.47,34.47,0,0,0,4-.58c1-.22,2.06-.49,3.08-.78a13.88,13.88,0,0,0,4.79-2.67c.16-.13.3-.32.55-.24a.58.58,0,0,1,.48.62c0,.43.06.86.08,1.29a.81.81,0,0,1-.29.78,6.84,6.84,0,0,1-1.94,1.31c-.85.41-1.7.82-2.58,1.17a20.09,20.09,0,0,1-3.95,1.08,28.2,28.2,0,0,0-3,.52,4.48,4.48,0,0,0-3.29,3c-.13.38-.24.77-.35,1.15a4.11,4.11,0,0,0,2,4.52,9.07,9.07,0,0,0,3.3,1.1,20.53,20.53,0,0,0,4.43.18,13.44,13.44,0,0,0,4.18-.95c.14-.06.31-.26.48,0a5.61,5.61,0,0,1-2.23,2.17l-.7.19-.39.09c-.79.11-1.58.19-2.36.32a15,15,0,0,1-4.33,0,8.51,8.51,0,0,1-3.82-1.37A3.19,3.19,0,0,1,19.89,46a60.19,60.19,0,0,1-2-6.81c-.37-1.71-.79-3.4-1-5.13A.61.61,0,0,1,17,33.62Z" transform="translate(-6.61 -1.91)"/><path class="cls-3" d="M35,46.34c-.22-.13-.35.08-.5.14a15.81,15.81,0,0,1-7.24.9,12.12,12.12,0,0,1-3.77-.77,4.74,4.74,0,0,1-3-3.22,1.73,1.73,0,0,1-.07-.55c.08-3.2,1.56-5.36,4.73-5.8a33.69,33.69,0,0,0,4-.72,25,25,0,0,0,4.25-1.66,11.56,11.56,0,0,0,2.13-1.3,1.21,1.21,0,0,0,.55-.88c.16.35.31.7.46,1-.48.34-.89.75-1.38,1.07a29.64,29.64,0,0,1-2.85,1.48,16.84,16.84,0,0,1-2.64,1,14.67,14.67,0,0,1-1.62.38c-1.12.22-2.25.31-3.37.56a3.63,3.63,0,0,0-2.26,1.29,4.83,4.83,0,0,0-1,4,3.3,3.3,0,0,0,1.57,2,8.21,8.21,0,0,0,3.47,1.09,18.84,18.84,0,0,0,4,.12A9.94,9.94,0,0,0,35.38,45c.23-.17.46-.36.71-.51a2.65,2.65,0,0,1-.65,1.32Z" transform="translate(-6.61 -1.91)"/><path class="cls-3" d="M36.23,11.66a.63.63,0,0,1-.23.56,8.72,8.72,0,0,0-2,3,10.89,10.89,0,0,1-.74,1.59c-.11.17-.24.31-.45.25s-.22-.29-.2-.47a4.23,4.23,0,0,1,.45-1.18,14.12,14.12,0,0,1,1-2.13,17.54,17.54,0,0,1,1.52-2.23c.09-.11.17-.23.27-.34s.21-.09.25.07A2.49,2.49,0,0,1,36.23,11.66Z" transform="translate(-6.61 -1.91)"/><path class="cls-3" d="M11.92,24.64c0-.2-.19-.39,0-.59s.42-.06.63,0a11.15,11.15,0,0,0,2.58.14,18.8,18.8,0,0,0,3-.36,18.62,18.62,0,0,0,2.57-.54A11.46,11.46,0,0,0,26,20.21a42.43,42.43,0,0,0,2.74-3.4,15.84,15.84,0,0,0,1.27-2,25.4,25.4,0,0,0,1.82-4.61,3.71,3.71,0,0,0,.07-.67c0-.3.2-.49.49-.46s.37.26.37.53a6.78,6.78,0,0,1-.58,2.3,21.2,21.2,0,0,1-1.94,4.22,31.39,31.39,0,0,1-2.36,3.14A15.94,15.94,0,0,1,26,21.46a11.41,11.41,0,0,1-3.24,2,23.87,23.87,0,0,1-2.28.82,28,28,0,0,1-3.15.55,18.12,18.12,0,0,1-4,.15,4.5,4.5,0,0,1-1.4-.3Z" transform="translate(-6.61 -1.91)"/><path class="cls-4" d="M33.3,43.3a20.08,20.08,0,0,0,.11-3.38v-.24c0-.19,0-.35.26-.37s.27.14.3.3c.19.89.37,1.77.63,2.64a1.91,1.91,0,0,0,.31.67,7.83,7.83,0,0,0,.15-2.25,7.63,7.63,0,0,0-.35-2.27c-.06-.17-.15-.39.11-.47s.35.14.42.32a6.14,6.14,0,0,1,.32,1.8,12.08,12.08,0,0,1,0,2.62,1.55,1.55,0,0,1-.07.31c-.08.28-.15.6-.52.62s-.47-.3-.61-.54-.12-.57-.34-.8c-.06.43-.11.85-.18,1.27a2.38,2.38,0,0,1-.15.45.43.43,0,0,1-.45.32c-.23,0-.34-.18-.41-.38A7.54,7.54,0,0,1,32.49,42c-.08-1.14-.12-2.28-.18-3.42,0-.16,0-.38.22-.4s.25.17.27.35c.1,1.19.08,2.39.23,3.57a5,5,0,0,0,.15,1C33.19,43.24,33.1,43.4,33.3,43.3Z" transform="translate(-6.61 -1.91)"/><path class="cls-4" d="M25.47,41.32l.09,2.38c0,.31,0,.61,0,.92,0,.15-.06.3-.24.31s-.25-.15-.24-.3c0-1.34-.18-2.68-.09-4a3.35,3.35,0,0,1,.36-1.42.8.8,0,0,1,.89-.45.77.77,0,0,1,.54.79,1.07,1.07,0,0,1-.66,1.15c-.18.08-.19.17-.1.31a10.81,10.81,0,0,1,1.13,3.09c.05.19.15.41-.13.5s-.34-.17-.41-.37a11.71,11.71,0,0,0-.84-2.57,3.79,3.79,0,0,1-.2-.34Z" transform="translate(-6.61 -1.91)"/><path class="cls-4" d="M36.22,39.42c.05.55.09,1.09.13,1.64s.09.95.11,1.43c0,.19.09.48-.23.5s-.29-.27-.31-.47c-.09-1.16-.16-2.32-.26-3.48a8.1,8.1,0,0,0-.16-1.1,1,1,0,0,1,1.06-1.22.7.7,0,0,1,.67.63,1.2,1.2,0,0,1-.59,1.25c-.22.13-.19.21,0,.36s.48.5.71.75.24.33,0,.49-.32,0-.44-.12l-.63-.7Z" transform="translate(-6.61 -1.91)"/><path class="cls-4" d="M23,43.14a1.74,1.74,0,0,0,.34.77c.2.24.33.23.44-.07A6.44,6.44,0,0,0,24,42.27c0-.15-.05-.17-.18-.19a.25.25,0,0,1-.24-.3c0-.18.16-.23.32-.24.49,0,.65.09.64.6a7.24,7.24,0,0,1-.2,1.61c-.09.39-.22.79-.7.88s-.74-.24-1-.71a4.59,4.59,0,0,1,0-3.6,1.72,1.72,0,0,1,.75-1,.74.74,0,0,1,.85.08c.13.1.2.23.1.38a.22.22,0,0,1-.35.05c-.27-.22-.44-.07-.59.14a3.84,3.84,0,0,0-.6,2.31A2.21,2.21,0,0,0,23,43.14Z" transform="translate(-6.61 -1.91)"/><path class="cls-4" d="M31.86,39.15a1.33,1.33,0,0,1-.78,1.76c-.15.08-.16.17-.15.32.05.92.19,1.84.32,2.75,0,.23.18.58-.17.64s-.26-.32-.3-.53a35.92,35.92,0,0,1-.49-4.74c0-.67.19-1,.66-1S31.73,38.61,31.86,39.15Z" transform="translate(-6.61 -1.91)"/><path class="cls-5" d="M27.75,44.09c0-.43-.06-1.11-.08-1.78l-.09-3c0-.19,0-.37.23-.37s.25.2.26.37c.06,1.49.13,3,.18,4.48,0,.36.1.54.49.52.2,0,.44,0,.42.3s-.28.27-.47.24C28.34,44.76,27.87,44.89,27.75,44.09Z" transform="translate(-6.61 -1.91)"/><path class="cls-6" d="M33.3,43.3a.23.23,0,0,1-.08.21.32.32,0,0,1,0-.35C33.2,43.22,33.22,43.28,33.3,43.3Z" transform="translate(-6.61 -1.91)"/><path class="cls-7" d="M26.24,39.52a.62.62,0,0,1-.11.46c-.13.17-.32.38-.51.28s0-.3.05-.46a1.17,1.17,0,0,1,.16-.36c.05-.09.11-.19.25-.16S26.21,39.43,26.24,39.52Z" transform="translate(-6.61 -1.91)"/><path class="cls-8" d="M36,38c-.1-.41,0-.64.34-.73s.3,0,.35.18a.7.7,0,0,1-.49.8C36,38.3,36.11,38,36,38Z" transform="translate(-6.61 -1.91)"/><path class="cls-9" d="M31.33,39.31a.9.9,0,0,1-.22,1c-.13.1-.24.14-.25-.1s0-.55,0-.83-.06-.43.17-.47S31.27,39.12,31.33,39.31Z" transform="translate(-6.61 -1.91)"/></g></svg>